<mxfile host="app.diagrams.net" modified="2023-09-05T02:38:36.184Z" agent="Mozilla/5.0 (Windows NT 10.0; Win64; x64) AppleWebKit/537.36 (KHTML, like Gecko) Chrome/116.0.0.0 Safari/537.36" etag="qXOIciFFcLTwo-mvEF4o" version="21.7.2" type="github">
  <diagram name="第 1 页" id="9UL20_CitR_EqOeJgoSy">
    <mxGraphModel dx="1802" dy="854" grid="1" gridSize="10" guides="1" tooltips="1" connect="1" arrows="1" fold="1" page="1" pageScale="1" pageWidth="827" pageHeight="1169" math="0" shadow="0">
      <root>
        <mxCell id="0" />
        <mxCell id="1" parent="0" />
        <mxCell id="9OOPCwePWQB7tY2OAx72-1" value="" style="ellipse;whiteSpace=wrap;html=1;aspect=fixed;" parent="1" vertex="1">
          <mxGeometry x="370" y="220" width="80" height="80" as="geometry" />
        </mxCell>
        <mxCell id="9OOPCwePWQB7tY2OAx72-2" value="" style="rounded=0;whiteSpace=wrap;html=1;" parent="1" vertex="1">
          <mxGeometry x="480" y="280" width="120" height="60" as="geometry" />
        </mxCell>
        <mxCell id="9OOPCwePWQB7tY2OAx72-3" value="" style="endArrow=classic;html=1;rounded=0;" parent="1" edge="1" target="9OOPCwePWQB7tY2OAx72-2">
          <mxGeometry width="50" height="50" relative="1" as="geometry">
            <mxPoint x="390" y="460" as="sourcePoint" />
            <mxPoint x="440" y="410" as="targetPoint" />
            <Array as="points">
              <mxPoint x="420" y="300" />
            </Array>
          </mxGeometry>
        </mxCell>
      </root>
    </mxGraphModel>
  </diagram>
</mxfile>
